<?xml version="1.0" standalone="no"?>
<!DOCTYPE svg PUBLIC "-//W3C//DTD SVG 20010904//EN"
 "http://www.w3.org/TR/2001/REC-SVG-20010904/DTD/svg10.dtd">
<svg version="1.0" xmlns="http://www.w3.org/2000/svg"
 width="352.000000pt" height="352.000000pt" viewBox="0 0 352.000000 352.000000"
 preserveAspectRatio="xMidYMid meet">
<metadata>
Created by potrace 1.14, written by Peter Selinger 2001-2017
</metadata>
<g transform="translate(0.000000,352.000000) scale(0.100000,-0.100000)"
fill="#000000" stroke="none">
<path d="M982 3079 c-4 -4 -27 -9 -52 -13 -53 -6 -91 -16 -105 -26 -5 -4 -23
-10 -38 -14 -78 -19 -294 -190 -313 -248 -3 -10 -10 -18 -15 -18 -5 0 -9 -6
-9 -14 0 -8 -3 -16 -7 -18 -8 -3 -49 -84 -73 -143 -15 -36 -29 -109 -39 -193
-6 -55 -4 -65 11 -73 12 -7 18 -6 18 1 0 8 6 8 20 0 11 -6 20 -7 20 -2 0 8 58
8 66 -1 3 -3 19 -1 35 3 18 5 29 5 29 -1 0 -6 8 -5 20 1 14 8 20 8 20 0 0 -7
6 -8 18 -1 10 5 24 6 31 1 8 -4 27 -4 42 0 18 5 29 5 29 -1 0 -6 8 -5 20 1 14
8 20 8 20 0 0 -7 6 -8 18 -1 10 5 24 6 31 1 8 -4 27 -4 42 0 18 5 29 5 29 -1
0 -6 8 -5 20 1 14 8 20 8 20 0 0 -7 6 -8 18 -1 10 5 24 6 31 1 8 -4 27 -4 42
0 18 5 29 5 29 -1 0 -6 8 -5 20 1 14 8 20 8 20 0 0 -7 6 -8 18 -1 10 5 24 6
31 1 8 -4 27 -4 42 0 18 5 29 5 29 -1 0 -6 8 -5 20 1 14 8 20 8 20 0 0 -7 6
-8 18 -1 11 6 24 6 35 0 11 -7 17 -6 17 1 0 8 6 8 20 0 14 -8 20 -8 20 0 0 8
6 8 20 0 13 -7 20 -7 20 -1 0 6 8 7 17 4 22 -8 64 -8 86 0 9 3 17 2 17 -4 0
-6 5 -7 11 -4 15 10 79 12 79 3 0 -3 14 -3 30 2 17 5 30 5 30 2 0 -9 64 -7 79
3 6 3 11 1 11 -5 0 -8 6 -8 20 0 14 8 26 8 40 0 14 -8 20 -8 20 0 0 8 6 8 20
0 13 -7 20 -7 20 -1 0 6 8 7 17 4 22 -8 64 -8 86 0 9 3 17 2 17 -4 0 -6 5 -7
11 -4 15 10 79 12 79 3 0 -3 13 -3 30 2 17 5 30 5 30 2 0 -9 64 -7 79 3 6 3
11 1 11 -5 0 -8 6 -8 20 0 14 8 26 8 40 0 14 -8 20 -8 20 0 0 8 6 8 20 0 13
-7 20 -7 20 -1 0 6 8 7 17 4 9 -4 29 -7 43 -7 14 0 34 3 43 7 9 3 17 2 17 -4
0 -6 5 -7 11 -4 15 10 79 12 79 3 0 -3 13 -3 30 2 17 5 30 5 30 2 0 -9 64 -7
79 3 6 3 11 1 11 -5 0 -8 6 -8 20 0 14 8 26 8 40 0 14 -8 20 -8 20 0 0 8 6 8
20 0 13 -7 20 -7 20 -1 0 6 8 7 17 4 9 -4 29 -7 43 -7 14 0 34 3 43 7 9 3 17
2 17 -4 0 -6 5 -7 11 -4 15 10 79 12 79 3 0 -3 14 -3 30 2 17 5 30 5 30 0 0
-7 68 3 74 12 7 7 -14 181 -22 192 -6 6 -13 27 -17 46 -4 19 -16 50 -27 68
-11 17 -17 32 -14 32 7 0 -30 56 -96 147 -29 40 -57 71 -62 70 -5 -2 -24 12
-42 30 -19 18 -41 33 -49 33 -8 0 -15 5 -15 11 0 5 -16 17 -35 25 -20 8 -38
21 -41 29 -3 7 -12 11 -20 8 -8 -3 -26 2 -40 12 -14 9 -41 17 -60 18 -19 1
-34 5 -34 10 0 4 -13 7 -29 7 -17 0 -32 4 -36 9 -7 12 -232 13 -254 1 -9 -5
-43 -14 -76 -20 -33 -7 -65 -16 -71 -21 -6 -5 -20 -10 -32 -12 -12 -2 -29 -10
-39 -19 -18 -15 -50 -30 -56 -25 -2 1 -10 -5 -19 -13 -9 -8 -28 -24 -44 -35
-15 -11 -42 -33 -58 -50 -17 -16 -34 -29 -38 -28 -4 2 -10 -6 -13 -17 -6 -19
-23 -27 -71 -34 -20 -3 -64 13 -64 24 0 19 -150 145 -181 152 -7 2 -20 9 -27
16 -7 6 -20 12 -28 12 -8 0 -14 5 -14 10 0 6 -11 10 -25 10 -14 0 -25 3 -25 8
0 11 -70 30 -76 21 -3 -5 -13 -5 -22 0 -54 28 -266 42 -290 20z"/>
<path d="M320 2260 l-95 -5 -3 -352 -2 -353 22 -4 c41 -9 138 -11 138 -3 0 4
9 3 20 -3 11 -6 20 -7 20 -3 0 4 45 6 100 3 55 -3 100 -1 100 3 0 4 9 3 20 -3
11 -6 20 -7 20 -3 0 4 45 6 100 3 55 -3 100 -2 100 2 0 4 14 3 30 -2 17 -5 30
-5 30 0 0 5 7 7 15 4 21 -8 165 -10 165 -2 0 4 13 3 30 -2 19 -5 30 -5 30 1 0
6 5 7 11 3 15 -9 129 -11 129 -1 0 4 9 3 19 -3 14 -7 22 -7 26 0 5 8 11 7 21
-1 11 -9 14 -9 14 0 0 9 5 9 20 1 14 -8 20 -8 20 0 0 8 6 8 20 0 14 -8 20 -8
20 0 0 7 6 8 19 0 14 -7 22 -7 26 0 5 8 11 7 21 -1 11 -9 14 -9 14 0 0 9 5 9
20 1 14 -8 20 -8 20 0 0 8 6 8 20 0 14 -8 20 -8 20 0 0 7 6 8 19 0 14 -7 22
-7 26 0 5 8 11 7 21 -1 11 -9 14 -9 14 0 0 9 5 9 20 1 14 -8 20 -8 20 0 0 8 6
8 20 0 14 -8 20 -8 20 0 0 7 6 8 19 0 14 -7 22 -7 26 0 5 8 11 7 21 -1 11 -9
14 -9 14 0 0 9 5 9 20 1 11 -6 20 -7 20 -3 0 4 36 6 80 3 44 -3 80 -1 80 3 0
4 9 3 20 -3 11 -6 20 -7 20 -3 0 4 45 6 100 3 55 -3 100 -2 100 2 0 4 13 3 30
-2 17 -5 30 -5 30 0 0 5 7 7 15 4 21 -8 165 -10 165 -2 0 4 13 3 30 -2 19 -5
30 -5 30 1 0 6 5 7 10 4 16 -10 170 -11 170 -2 0 4 9 3 20 -3 11 -6 20 -7 20
-3 0 4 45 6 100 3 55 -3 100 -1 100 3 0 4 9 3 20 -3 11 -6 20 -7 20 -3 0 4 36
6 80 3 44 -3 80 -2 80 2 0 4 7 5 15 2 13 -5 15 38 15 354 l0 360 -35 4 c-19 2
-35 1 -35 -3 0 -4 -14 -4 -30 1 -19 5 -30 5 -30 -1 0 -6 -6 -7 -12 -2 -18 11
-30 11 -50 1 -11 -5 -18 -5 -18 1 0 6 -11 6 -28 2 -15 -5 -37 -4 -50 0 -13 5
-22 5 -22 -2 0 -6 -7 -6 -20 1 -11 6 -20 7 -20 2 0 -5 -18 -6 -40 -2 -22 4
-40 3 -40 -2 0 -5 -9 -4 -20 2 -11 6 -20 7 -20 2 0 -5 -18 -6 -40 -2 -22 4
-40 3 -40 -2 0 -5 -9 -4 -20 2 -11 6 -20 7 -20 2 0 -5 -18 -6 -40 -2 -25 5
-40 4 -40 -3 0 -6 -4 -6 -12 0 -7 5 -24 7 -38 3 -14 -4 -35 -3 -47 1 -14 5
-23 5 -23 -2 0 -6 -7 -6 -20 1 -11 6 -20 7 -20 2 0 -5 -18 -6 -40 -2 -22 4
-40 3 -40 -2 0 -5 -9 -4 -20 2 -11 6 -20 7 -20 2 0 -5 -18 -6 -40 -2 -22 4
-40 3 -40 -2 0 -5 -9 -4 -20 2 -11 6 -20 7 -20 2 0 -5 -18 -6 -40 -2 -25 5
-40 4 -40 -3 0 -6 -4 -6 -12 0 -7 5 -24 7 -38 3 -14 -4 -35 -3 -47 1 -14 5
-23 5 -23 -2 0 -6 -7 -6 -20 1 -11 6 -20 7 -20 2 0 -5 -18 -6 -40 -2 -22 4
-40 3 -40 -2 0 -5 -9 -4 -20 2 -11 6 -20 7 -20 2 0 -5 -18 -6 -40 -2 -22 4
-40 3 -40 -2 0 -5 -9 -4 -20 2 -11 6 -20 7 -20 2 0 -5 -18 -6 -40 -2 -25 5
-40 4 -40 -3 0 -6 -4 -6 -12 0 -7 5 -24 7 -38 3 -14 -4 -35 -3 -47 1 -14 5
-23 5 -23 -2 0 -6 -7 -6 -20 1 -11 6 -20 7 -20 2 0 -5 -18 -6 -40 -2 -22 4
-40 3 -40 -2 0 -5 -9 -4 -20 2 -11 6 -20 7 -20 3 0 -9 -144 -8 -159 1 -5 4
-12 2 -16 -4 -4 -6 -13 -7 -21 -2 -8 5 -37 5 -65 2 -27 -4 -52 -3 -55 2 -3 5
-11 5 -18 -1 -6 -5 -17 -6 -24 -2 -7 4 -35 4 -63 1 -27 -4 -52 -3 -55 2 -3 5
-11 5 -18 -1 -6 -5 -17 -6 -24 -2 -7 4 -35 4 -63 1 -27 -4 -52 -3 -55 2 -3 5
-11 5 -18 -1 -6 -5 -17 -6 -24 -2 -7 4 -35 4 -63 1 -27 -4 -52 -3 -55 2 -3 5
-11 4 -18 -1 -7 -6 -15 -8 -19 -5 -8 8 -76 10 -187 4z"/>
<path d="M842 1481 c-9 -5 -3 -16 20 -39 18 -17 56 -57 85 -89 28 -32 77 -85
107 -118 31 -33 56 -60 56 -60 0 -1 41 -43 90 -94 50 -52 90 -95 90 -97 0 -2
21 -23 48 -48 26 -24 126 -130 222 -234 155 -168 200 -206 200 -170 0 6 14 26
30 45 16 18 30 31 30 29 0 -3 21 18 48 47 26 28 65 70 87 93 22 23 96 101 165
175 69 74 155 164 191 202 36 37 63 69 61 72 -3 3 3 5 13 5 10 0 16 3 13 6 -3
3 13 25 37 50 24 24 42 44 40 44 -1 0 30 33 69 74 105 109 105 110 73 104 -15
-3 -30 -1 -33 3 -3 5 -13 5 -23 -1 -12 -6 -22 -5 -28 1 -8 8 -17 7 -32 0 -14
-8 -27 -9 -39 -2 -13 7 -22 7 -29 0 -7 -7 -13 -7 -17 -1 -4 7 -17 7 -34 2 -16
-4 -36 -4 -45 2 -11 6 -17 5 -17 -2 0 -6 -5 -8 -11 -5 -9 6 -69 14 -69 9 0 0
14 -18 30 -39 33 -41 41 -106 19 -148 -19 -34 -110 -147 -119 -147 -5 0 -54
-45 -110 -101 -56 -55 -113 -104 -126 -109 -13 -5 -24 -16 -24 -25 0 -8 -3
-14 -7 -13 -5 1 -30 -8 -56 -20 -27 -12 -53 -20 -58 -16 -5 3 -9 0 -9 -6 0 -8
-6 -8 -20 0 -11 6 -20 7 -20 2 0 -20 -146 17 -184 47 -94 75 -296 277 -356
356 -44 58 -50 72 -50 114 0 35 6 56 22 76 l22 28 -22 -5 c-12 -4 -25 -2 -28
3 -3 5 -12 5 -23 -1 -12 -6 -22 -5 -28 1 -8 8 -17 7 -32 0 -14 -8 -27 -9 -39
-2 -13 7 -22 7 -29 0 -7 -7 -13 -7 -17 -1 -4 7 -17 7 -34 2 -16 -4 -36 -4 -45
2 -12 6 -17 5 -17 -3 0 -8 -4 -8 -13 -1 -7 6 -18 7 -25 3z"/>
</g>
</svg>
